<svg width="102" height="22" viewBox="0 0 102 22" fill="none" xmlns="http://www.w3.org/2000/svg">
<path d="M97.6889 17.5181C98.0742 17.5181 98.3015 17.4535 98.4442 17.323C98.5551 17.2039 98.6108 16.9273 98.6108 16.477V7.25043C98.6108 6.77833 98.5606 6.46504 98.465 6.30884C98.338 6.11075 98.0691 6.0117 97.6617 6.0117H97.3507V5.34587L100.964 5.05833V16.4818C100.964 17.0682 101.117 17.3989 101.424 17.4696C101.545 17.5019 101.725 17.5181 101.958 17.5181V18.2349H97.6889V17.5181ZM92.0196 14.1972C92.3523 13.907 92.9491 13.6766 93.8111 13.5021V14.8159C93.8111 15.5594 93.6998 16.1236 93.4836 16.5088C93.204 17.0246 92.8391 17.2794 92.3846 17.2794C92.1152 17.2794 91.8879 17.1607 91.7031 16.9164C91.5179 16.6716 91.4236 16.319 91.4236 15.8526C91.4232 15.0925 91.6241 14.5445 92.0196 14.1972ZM90.4852 10.6852C90.5565 10.491 90.7418 10.3052 91.043 10.1289C91.3897 9.92842 91.7811 9.82378 92.1789 9.82519C93.2673 9.82519 93.8115 10.3366 93.8115 11.3619V12.7726C92.2002 13.095 91.0481 13.4672 90.3458 13.8878C89.432 14.4302 88.9724 15.1903 88.9724 16.1672C88.9724 16.7423 89.144 17.2471 89.4902 17.6756C89.9418 18.2297 90.6109 18.5055 91.4984 18.5055C92.0031 18.5055 92.4861 18.3589 92.9457 18.0604C93.374 17.7886 93.696 17.4417 93.9126 17.018V17.4522C93.925 17.8213 93.925 18.087 93.9126 18.2336H97.0368V17.5172H96.9178C96.4161 17.5172 96.1655 17.1638 96.1655 16.4534V12.1731C96.1655 10.1075 95.0265 9.0734 92.7554 9.0734C91.8361 9.0734 91.0651 9.2728 90.4389 9.67161C89.8127 10.0691 89.5009 10.5896 89.5009 11.2371C89.5009 11.6831 89.6436 12.0361 89.9346 12.2926C90.1771 12.5061 90.487 12.6214 90.8063 12.6168C91.1734 12.6168 91.4771 12.4986 91.7201 12.2625C91.9657 12.0291 92.0893 11.7651 92.0893 11.4762C92.0893 10.7602 91.7167 10.4007 90.9805 10.4007C90.7006 10.4007 90.4737 10.4928 90.3038 10.6747L90.4865 10.7476C90.4881 10.707 90.4881 10.6852 90.4852 10.6852ZM30.0078 12.715C31.4318 12.715 32.5699 12.4288 33.4259 11.8602C34.3928 11.2245 34.8737 10.2855 34.8737 9.0385C34.8737 7.74304 34.3852 6.77833 33.4077 6.14216C32.5759 5.59806 31.4505 5.32536 30.029 5.32536H25.2952V6.02959C25.8577 6.02959 26.2065 6.07148 26.3411 6.15176C26.571 6.28484 26.687 6.64699 26.687 7.24127V16.4168C26.687 16.8666 26.5918 17.1712 26.3989 17.3283C26.2405 17.453 25.9448 17.5128 25.5085 17.5128H25.2948V18.2297H30.9271V17.5128H30.3409C29.8893 17.5128 29.5825 17.4421 29.419 17.2903C29.2554 17.1437 29.1734 16.8562 29.1734 16.4168V12.715H30.0078ZM32.2899 9.04809C32.2899 10.9474 31.5346 11.8969 30.0286 11.8969H29.2363V6.07584H30.0286C31.5346 6.07584 32.2899 7.06761 32.2899 9.04809ZM38.458 11.0517C38.7855 9.73182 39.4801 9.07122 40.5472 9.07122C40.9381 9.07122 41.2499 9.17986 41.4852 9.39934C41.7202 9.61881 41.8391 9.90809 41.8391 10.2702C41.841 10.5792 41.7351 10.8786 41.5405 11.1141C41.3132 11.3855 41.0281 11.5234 40.6844 11.5234C40.3569 11.5234 40.0956 11.4191 39.9028 11.2131C39.718 11.0325 39.636 10.8104 39.6517 10.5469C39.6517 10.5224 39.6649 10.46 39.6861 10.361C39.3637 10.7777 39.1105 11.4911 38.9202 12.4951C38.7668 13.2997 38.6878 14.0375 38.6878 14.7024V16.4765C38.6878 16.8941 38.7354 17.1655 38.825 17.2903C38.9359 17.4421 39.2371 17.5128 39.7231 17.5128H40.0162V18.2297H35.2777V17.5128H35.4549C35.7799 17.5128 36.0148 17.453 36.1575 17.3339C36.2999 17.2196 36.3687 16.9268 36.3687 16.4765V12.6076C36.3687 11.2742 36.3343 10.532 36.2629 10.3841C36.1626 10.1441 35.9672 10.0246 35.6766 10.0246H35.4285V9.30989H38.3976L38.458 11.0517ZM48.2922 16.8073C48.2552 16.8295 48.2183 16.8618 48.1707 16.8893L48.2922 16.8191C48.1443 17.2366 47.872 17.611 47.4706 17.9313C47.0157 18.3048 46.4496 18.5063 45.8673 18.502C44.8634 18.502 44.1557 18.2197 43.7436 17.6498C43.4161 17.2043 43.2495 16.5049 43.2495 15.555V11.8183C43.2495 10.9771 43.2126 10.4862 43.1412 10.3453C43.0409 10.1568 42.8056 10.0591 42.4309 10.0591H42.357V9.31164H45.6379V15.8701C45.6379 16.7379 45.9892 17.1725 46.6919 17.1725C47.273 17.1725 47.6664 16.7602 47.8699 15.9189C47.9595 15.5825 48.002 15.1213 48.002 14.5349V11.8218C48.002 10.8938 47.96 10.3824 47.8725 10.2833C47.7459 10.1354 47.4816 10.0582 47.0772 10.0582H46.8291V9.31076H50.4112V16.0049C50.4112 16.7375 50.4537 17.1659 50.5408 17.2803C50.6516 17.4373 50.8658 17.5133 51.1801 17.5133H51.4044V18.2297H48.2242L48.1711 16.792L48.2242 16.8295L48.2399 16.8684L48.2922 16.8073ZM55.3374 9.10613C54.1671 9.10613 53.2218 9.62186 52.503 10.6485C51.8692 11.5631 51.5523 12.6076 51.5523 13.7849C51.5523 15.0764 51.7847 16.1236 52.26 16.9325C52.8624 17.9793 53.7945 18.5007 55.0605 18.5007C55.71 18.5007 56.275 18.2943 56.7564 17.882C57.1315 17.5512 57.377 17.1873 57.4909 16.7911L57.4301 16.84L57.3588 16.7698L57.4195 18.2297H60.5339V17.5233H60.378C60.0215 17.5233 59.7858 17.4256 59.6728 17.2358C59.5831 17.1001 59.5402 16.8452 59.5402 16.4813V5.0544L55.8952 5.34063V6.00821H56.1331C56.5928 6.00821 56.8885 6.13693 57.024 6.39218C57.1034 6.54271 57.151 6.88305 57.1667 7.41493C57.1667 8.85 57.1905 9.68949 57.2381 9.9286C56.9004 9.37883 56.264 9.10613 55.3374 9.10613ZM57.1858 12.8193V14.6265C57.1858 15.12 57.1493 15.5323 57.0779 15.8578C56.8613 16.8457 56.4016 17.3444 55.7045 17.3444C54.727 17.3444 54.2359 16.1558 54.2359 13.7849C54.2359 12.7298 54.2945 11.9523 54.4045 11.4488C54.6284 10.4762 55.0749 9.98969 55.741 9.98969C56.7033 9.98925 57.1858 10.9335 57.1858 12.8193ZM63.1873 13.5654H68.4734C68.4649 12.2241 68.1722 11.1656 67.5966 10.3924C66.947 9.51191 65.9852 9.07122 64.712 9.07122C63.5416 9.07122 62.5726 9.50406 61.8007 10.368C61.0241 11.2581 60.6388 12.3921 60.6388 13.7687C60.6388 15.185 60.977 16.3081 61.658 17.1389C62.3874 18.0508 63.4248 18.5007 64.7694 18.5007C65.8127 18.5007 66.6921 18.1049 67.4054 17.3178C68.0295 16.6284 68.3536 15.8906 68.3778 15.0986H67.4984C67.4899 15.6842 67.2737 16.2331 66.8489 16.7431C66.3675 17.3291 65.7949 17.6167 65.1262 17.6167C64.1729 17.6167 63.5705 16.9168 63.3224 15.5166C63.2332 15.0493 63.1873 14.4036 63.1873 13.5654ZM64.6861 9.75189C65.5995 9.75189 66.0591 10.7733 66.0591 12.8162H63.1873C63.1958 12.4977 63.209 12.2328 63.2247 12.0203C63.3458 10.5089 63.8326 9.75189 64.6861 9.75189ZM71.9102 10.471C72.1086 10.0573 72.4255 9.72222 72.858 9.46173C73.2917 9.20125 73.7718 9.07078 74.3028 9.07078C76.0437 9.07078 76.9146 10.042 76.9146 11.9859V16.0481C76.9146 16.4979 76.918 16.7689 76.9252 16.8618C76.9567 17.2955 77.2264 17.5124 77.7256 17.5124H77.9079V18.2288H74.5267V11.673C74.5267 11.2197 74.4744 10.8942 74.3682 10.6961C74.2157 10.4073 73.9277 10.262 73.502 10.262C73.101 10.262 72.7786 10.4627 72.5356 10.8671C72.296 11.2729 72.1736 11.8694 72.1736 12.6591V16.0206C72.1736 16.775 72.2076 17.1978 72.2815 17.2794C72.4268 17.4369 72.6855 17.5128 73.0555 17.5128H73.2008V18.2297H68.795V17.5128H69.0303C69.4798 17.5128 69.7198 17.2964 69.7542 16.8618C69.77 16.7593 69.778 16.4656 69.778 15.9826V11.5208C69.778 10.8274 69.7279 10.4055 69.6276 10.2537C69.5303 10.1005 69.3184 10.0246 68.9968 10.0246H68.7963V9.30989H71.9102V10.471ZM81.1854 18.5002C79.7405 18.5002 79.0141 17.6586 79.0141 15.977V10.0573H77.461V9.34218H77.6993C78.5498 9.34218 79.2677 8.85131 79.8599 7.86347C80.3667 7.03489 80.6263 6.18667 80.642 5.32536H81.371V9.34218H83.0295V10.0573H81.371V16.2754C81.371 17.0084 81.5911 17.3771 82.0316 17.3771C82.4199 17.3771 82.6714 17.0294 82.7844 16.3347C82.8239 16.0852 82.8452 15.5856 82.8452 14.8425H83.6587C83.6587 16.0695 83.5504 16.9094 83.3363 17.3492C82.9756 18.1202 82.2572 18.5002 81.1854 18.5002ZM10.8674 0.703794C4.74825 0.703794 0.750662 5.86946 0.750662 10.6782C0.750662 13.4402 1.40574 14.8155 2.12411 16.1336C3.03026 13.633 4.84128 8.65802 4.84128 8.65802C4.84128 8.65802 5.68498 8.21035 5.68498 8.2758L6.90125 5.10022L7.68335 4.68352L8.65279 2.56603L10.7727 2.91902L15.0833 5.38775L19.9225 6.76785C18.6756 3.49715 15.1466 0.703794 10.8674 0.703794ZM10.8037 22C8.15023 22 4.90373 21.0396 2.56083 18.0879H19.0189C17.1119 20.6221 13.8361 22 10.8037 22ZM14.0531 17.5778H12.5527L15.337 14.0157L15.6169 14.5606L14.0531 17.5778ZM15.5218 6.25343L10.7459 3.40073L8.99605 3.07915V4.3938L10.3393 5.67835L8.46502 5.5156C8.46502 5.5156 8.52577 5.61334 10.0857 7.31283L17.207 8.53105L18.4539 9.3653L15.2099 9.52544L13.8679 14.5606L9.46336 17.5778H6.58943L7.55888 15.6192L7.40169 15.5546L4.809 17.5787H4.18578L6.83923 13.7582C6.96455 12.6692 6.90125 13.15 7.05843 11.1922L6.65273 10.6163L5.59067 14.8486L3.37309 17.5783H2.8102L4.12163 15.6837L5.96409 9.87973L5.49509 10.1023L4.68282 12.4122L4.12163 12.732C4.12163 12.732 2.8102 16.004 2.12327 17.6045C1.12536 16.1349 0 14.1457 0 10.6786C0 5.48287 4.34127 0 10.8674 0C17.1437 0 20.4879 5.13163 21.0479 7.79191L15.5218 6.25343ZM18.6123 13.7578L17.7036 14.5606L15.8969 17.5778H14.7082L15.8969 15.4233L16.8319 14.6257L18.179 10.7445L19.6107 11.3536L18.6123 13.7578ZM19.4573 17.5778H17.0537L19.3307 13.8878L20.0177 11.4815L21.4544 11.9955C21.3278 13.8555 20.736 15.744 19.4573 17.5778ZM16.5201 13.15L15.8017 13.2809L15.992 11.8031L15.8017 11.5142L15.992 9.8457L17.8307 10.6163L16.5201 13.15ZM84.2356 17.5181H84.4654C84.8087 17.5181 85.0249 17.4037 85.112 17.1873C85.1677 17.0298 85.1936 16.6389 85.1936 16.0097V11.3458C85.1936 10.7136 85.135 10.3431 85.0079 10.2305C84.8869 10.1193 84.7042 10.0639 84.4646 10.0639H84.2347V9.34872H87.5496V16.0092C87.5496 16.7423 87.5921 17.1707 87.6822 17.2951C87.7931 17.4469 87.9991 17.5176 88.3105 17.5176H88.5488V18.2345H84.2356V17.5181ZM84.8669 6.85032C84.8669 6.44759 85.0045 6.10682 85.2824 5.82321C85.4128 5.68619 85.569 5.57789 85.7416 5.5049C85.9141 5.43191 86.0992 5.39576 86.2858 5.39866C86.4732 5.39588 86.6591 5.43206 86.8325 5.50502C87.0059 5.57798 87.1631 5.68621 87.2948 5.82321C87.5777 6.10682 87.7179 6.44715 87.7179 6.85032C87.7179 7.25436 87.5777 7.60037 87.2948 7.88921C87.0152 8.18199 86.6796 8.32728 86.2858 8.32728C85.8924 8.32728 85.5598 8.18199 85.2824 7.88921C85.1481 7.75405 85.0421 7.59224 84.9706 7.41364C84.8992 7.23504 84.8639 7.04338 84.8669 6.85032Z" fill="white"/>
</svg>
