<svg width="64" height="62" viewBox="0 0 64 62" fill="none" xmlns="http://www.w3.org/2000/svg">
<path d="M32 0C39.1006 0 44.8567 5.60603 44.8567 12.5214C44.8567 18.6826 40.2869 23.8004 34.2688 24.8443V55.2574C42.0048 48.1196 49.7411 40.9818 57.4771 33.8441C55.5988 32.0328 53.7202 30.2218 51.842 28.4106C51.2203 27.8111 50.598 27.2103 49.9764 26.6109C51.0402 25.5644 52.1045 24.5184 53.1684 23.4719C53.79 24.0713 54.4124 24.6707 55.034 25.2701C57.4675 27.6168 59.9018 29.9639 62.3353 32.3105L64 33.9146L62.2984 35.4841C52.719 44.3226 43.1392 53.1615 33.5598 62C32 62 32 62 30.4402 62C20.8608 53.1615 11.2811 44.3226 1.70162 35.4841L0 33.9146L1.6647 32.3105C4.09823 29.9639 6.5325 27.6168 8.96603 25.2701C9.58764 24.6707 10.21 24.0713 10.8316 23.4719C11.8955 24.5184 12.9598 25.5644 14.0236 26.6109C13.402 27.2103 12.7797 27.8111 12.1581 28.4106C10.2798 30.2218 8.40119 32.0328 6.52289 33.8441C14.2589 40.9818 21.9952 48.1196 29.7312 55.2574V24.8443C23.7131 23.8004 19.1433 18.6826 19.1433 12.5214C19.1433 5.60603 24.8994 0 32 0ZM32 4.41932C27.4055 4.41932 23.6809 8.04675 23.6809 12.5214C23.6809 16.9961 27.4055 20.6235 32 20.6235C36.5945 20.6235 40.3191 16.9961 40.3191 12.5214C40.3191 8.04675 36.5945 4.41932 32 4.41932Z" fill="#218EFF"/>
</svg>
